# xmcd
#
# Track frame offsets:
#	225
#	19205
#	33037
#	44122
#	64662
#	82615
#	97140
#	106140
#	118605
#	131487
#	145262
#	162087
#	174670
#	188017
#	204815
#	225740
#	240785
#	250857
#	263155
#	275207
#	285260
#
# Disc length: 4003 seconds
# Revision: 2
# Processed by: cddbd v1.5.2PL0 Copyright (c) Steve Scherf et al.
# Submitted via: dBpowerAMP V12.0
#
DISCID=170fa015
DTITLE=Various Artist - Country Soft N Mellow Disc 2
DYEAR=1989
DGENRE=Country
TTITLE0=Ronnie Milsap - Lost in The Fifties Tonight
TTITLE1=Glen Campbell - Where Do I Begin
TTITLE2=Linda Ronstadt - Will You Love Me Tomorrow
TTITLE3=Elvis Presley - Bridge Over Troubled Water
TTITLE4=Waylon Jennings and Jessie Colter - Suspicious Minds
TTITLE5=Glen Campbell and Bobbie Gentry - My Elusive Dreams
TTITLE6=Everly Brothers The - When Will I Be Loved
TTITLE7=Bobby Bare and Skeeter Davis - In The Misty Moonlight
TTITLE8=Jim Ed Brown and Helen Cornelius - Morning Comes Too Early
TTITLE9=Waylon Jennings and Willie Nelson - The Year That Clayton Delaney Died
TTITLE10=Lee Greenwood - For The Good Times
TTITLE11=Roy Orbison - Blue Bayou
TTITLE12=Jerry Reed - Time In A Bottle
TTITLE13=Eddy Arnold - Leaving On A Jet Plane
TTITLE14=Ronnie Milsap - Still Losing You
TTITLE15=Kenny Dale - Bluest Heartache Of The Year
TTITLE16=Eddy Arnold - Gonna Find Me A Bluebird
TTITLE17=Patsy Cline - Crazy
TTITLE18=Bobby Bare - The Streets Of Baltimore
TTITLE19=Browns The - Send Me The Pillow You Dream On
TTITLE20=Jim Reeves - Four Walls and I Missed Me and He'll Have To Go and Oh  How I Miss You Tonight (Medley)
EXTD=
EXTT0=
EXTT1=
EXTT2=
EXTT3=
EXTT4=
EXTT5=
EXTT6=
EXTT7=
EXTT8=
EXTT9=
EXTT10=
EXTT11=
EXTT12=
EXTT13=
EXTT14=
EXTT15=
EXTT16=
EXTT17=
EXTT18=
EXTT19=
EXTT20=
PLAYORDER=
